<svg width="22" height="22" viewBox="0 0 22 22" fill="none" xmlns="http://www.w3.org/2000/svg">
<path d="M0.00610924 17.4826C0.0106926 20.0032 1.99827 21.9902 4.51713 21.9943C8.83196 22.0012 13.1468 22.0012 17.4612 21.9939C20.0139 21.9893 21.9901 20.0082 21.9969 17.4592C22.0029 15.3136 21.9983 13.1679 21.9983 11.0223C21.9988 8.88398 22.0015 6.74613 21.9979 4.60783C21.9937 1.9699 20.0341 0.00623923 17.3929 0.003489C13.1087 -0.00155308 8.82463 -0.00155308 4.54051 0.00303063C2.00561 0.00578086 0.01161 1.98457 0.00610924 4.51661C-0.00260162 8.8386 -0.00168419 13.1606 0.00610924 17.4826Z" fill="white"/>
<path d="M0.00610924 17.4826C0.0106926 20.0032 1.99827 21.9902 4.51713 21.9943C8.83196 22.0012 13.1468 22.0012 17.4612 21.9939C20.0139 21.9893 21.9901 20.0082 21.9969 17.4592C22.0029 15.3136 21.9983 13.1679 21.9983 11.0223C21.9988 8.88398 22.0015 6.74613 21.9979 4.60783C21.9937 1.9699 20.0341 0.00623923 17.3929 0.003489C13.1087 -0.00155308 8.82463 -0.00155308 4.54051 0.00303063C2.00561 0.00578086 0.01161 1.98457 0.00610924 4.51661C-0.00260162 8.8386 -0.00168419 13.1606 0.00610924 17.4826Z" fill="#949494"/>
<path d="M17.8791 5.30932C17.6119 5.30932 17.3446 5.30198 17.0779 5.31253C16.9367 5.31803 16.8954 5.27586 16.8977 5.13376C16.906 4.62268 16.9023 4.11114 16.9009 3.59959C16.8995 3.16322 16.7098 2.97667 16.2706 2.97621C16.0799 2.97575 15.8888 2.97483 15.6981 2.97758C15.3369 2.98217 15.1361 3.18247 15.1329 3.54917C15.1288 4.06071 15.1233 4.57226 15.1352 5.08334C15.1393 5.25798 15.1017 5.31894 14.9152 5.3139C14.4041 5.30061 13.8925 5.30749 13.3809 5.31069C12.9977 5.31299 12.8089 5.50367 12.8024 5.89053C12.7992 6.08901 12.7997 6.28748 12.8024 6.48596C12.8075 6.86366 13.0078 7.0658 13.3823 7.06763C13.8939 7.06992 14.4054 7.07497 14.9165 7.06396C15.082 7.0603 15.1402 7.09559 15.1352 7.27436C15.1219 7.78544 15.1292 8.29698 15.1315 8.80853C15.1334 9.20456 15.3268 9.39524 15.7256 9.39845C15.9241 9.40028 16.1226 9.4012 16.3211 9.39799C16.7011 9.39249 16.8963 9.19998 16.8995 8.8154C16.9041 8.29653 16.906 7.77719 16.8977 7.25831C16.8954 7.11347 16.927 7.06121 17.0847 7.06442C17.6036 7.07497 18.123 7.06901 18.6419 7.06717C19.0237 7.0658 19.2199 6.87328 19.2259 6.49283C19.2291 6.27144 19.2305 6.05005 19.2236 5.82865C19.2135 5.51284 19.0191 5.31849 18.7033 5.31115C18.4287 5.30428 18.1537 5.30932 17.8791 5.30932Z" fill="white"/>
<path d="M3.33921 4.52642C3.33462 4.70335 3.41209 4.82803 3.52531 4.94033C3.8989 5.31115 4.26562 5.68885 4.64425 6.05463C4.75288 6.1596 4.75151 6.21781 4.64379 6.32232C4.26516 6.6881 3.89478 7.06213 3.52623 7.43845C3.26357 7.7066 3.26816 7.97016 3.52944 8.23694C3.67337 8.38407 3.81869 8.52984 3.96445 8.67606C4.21794 8.93091 4.50994 8.93733 4.76847 8.68247C5.14297 8.31303 5.51519 7.94129 5.88007 7.56221C5.98229 7.45633 6.04188 7.44854 6.14777 7.55855C6.50165 7.92708 6.86652 8.28507 7.22774 8.64626C7.52798 8.9465 7.80256 8.94558 8.09776 8.6481C8.23757 8.50692 8.38105 8.37032 8.51856 8.22731C8.76335 7.972 8.7661 7.69468 8.51811 7.4412C8.14452 7.05984 7.76818 6.68031 7.38313 6.3104C7.27953 6.21093 7.27908 6.1596 7.38084 6.06196C7.74893 5.70764 8.10785 5.34415 8.46997 4.98387C8.77985 4.67585 8.77985 4.40541 8.47135 4.09876C8.34162 3.9695 8.21282 3.83978 8.08126 3.71189C7.79568 3.43366 7.52661 3.43366 7.24515 3.71373C6.87752 4.07951 6.5076 4.44345 6.14731 4.81703C6.04142 4.92658 5.9855 4.92245 5.88007 4.8129C5.52115 4.43841 5.14848 4.07721 4.78176 3.71006C4.51177 3.43962 4.23765 3.43504 3.96399 3.70181C3.79989 3.86132 3.639 4.02404 3.47856 4.18768C3.38459 4.28394 3.336 4.40174 3.33921 4.52642Z" fill="white"/>
<path d="M16.0978 17.0404C16.9609 17.0404 17.8236 17.0418 18.6868 17.04C19.0961 17.039 19.2918 16.8429 19.2941 16.4377C19.295 16.2465 19.2955 16.0558 19.2937 15.8647C19.2895 15.4687 19.0984 15.2734 18.7 15.2725C17.5697 15.2693 16.4393 15.2706 15.3089 15.2702C14.6978 15.2702 14.0868 15.2693 13.4758 15.2702C13.071 15.2711 12.8744 15.4687 12.8721 15.8743C12.8707 16.0655 12.8707 16.2561 12.8721 16.4473C12.8753 16.8433 13.066 17.039 13.4625 17.0404C14.3408 17.0436 15.219 17.0413 16.0973 17.0413C16.0978 17.0413 16.0978 17.0409 16.0978 17.0404Z" fill="white"/>
<path d="M6.08194 15.3541C6.94464 15.3545 7.80687 15.3554 8.66956 15.3541C9.10916 15.3532 9.29435 15.1661 9.2948 14.7289C9.29526 14.5382 9.29893 14.347 9.29526 14.1563C9.28884 13.7997 9.0954 13.5967 8.74336 13.5962C6.9726 13.593 5.20183 13.593 3.43107 13.5962C3.06803 13.5967 2.88375 13.7887 2.87825 14.1518C2.87504 14.3732 2.87458 14.5946 2.87917 14.8159C2.8865 15.1551 3.08361 15.3518 3.42557 15.3532C4.31118 15.3559 5.19679 15.3536 6.08194 15.3541Z" fill="white"/>
<path d="M6.07558 18.7181C6.93827 18.7181 7.80051 18.719 8.6632 18.7176C9.12159 18.7171 9.29394 18.5411 9.29624 18.0768C9.29715 17.9012 9.29715 17.7257 9.29578 17.5501C9.29257 17.1541 9.10188 16.9575 8.70675 16.957C7.27198 16.9547 5.83676 16.9561 4.402 16.9561C4.08158 16.9561 3.76071 16.9542 3.4403 16.9584C3.08 16.963 2.88656 17.1523 2.87968 17.507C2.87556 17.7206 2.87602 17.9347 2.88014 18.1483C2.88794 18.5375 3.069 18.7158 3.46551 18.7171C4.33508 18.7204 5.2051 18.7181 6.07558 18.7181Z" fill="white"/>
</svg>
