<svg width="24" height="24" viewBox="0 0 24 24" fill="none" xmlns="http://www.w3.org/2000/svg">
<path d="M23.7646 6.57035C22.4182 7.89726 21.0906 9.24312 19.7555 10.5795C19.6894 10.6459 19.6044 10.7729 19.5477 10.7615C18.4713 10.5416 18.6583 11.4932 18.4865 11.9955C17.9634 13.5101 17.5441 15.0588 17.0682 16.5885C16.5678 18.1884 15.5518 19.3125 13.9731 19.9077C10.4229 21.2479 6.8783 22.5975 3.32995 23.9396C2.74643 24.1595 1.86831 23.7519 1.66436 23.1927C1.57183 22.9425 1.76633 22.8553 1.8853 22.7359C3.98712 20.6072 6.10593 18.4917 8.19453 16.3478C8.53823 15.9971 8.76861 16.1885 9.09153 16.3174C10.8988 17.0302 12.7438 15.8246 12.7513 13.8058C12.6965 12.8447 12.2169 11.9898 11.2141 11.533C10.1698 11.0553 9.16896 11.2487 8.33428 12.0239C7.55058 12.75 7.22766 13.7072 7.6771 14.6835C8.01891 15.4246 7.76208 15.781 7.27865 16.2549C5.36378 18.1277 3.49235 20.0423 1.58504 21.9208C1.38676 22.1179 1.20547 22.6771 0.824009 22.3113C0.4501 21.9492 -0.24484 21.7293 0.0875226 20.8858C1.10161 18.3135 2.04582 15.7128 3.01836 13.1253C3.4187 12.0656 3.82283 11.0098 4.22884 9.95207C4.76893 8.54365 5.75091 7.57311 7.17478 7.1049C9.0481 6.48694 10.9403 5.92964 12.8174 5.32685C13.0572 5.24913 13.6275 5.3041 13.2045 4.72026C13.0874 4.55913 13.3216 4.38664 13.45 4.25774C14.7833 2.91566 16.1259 1.58496 17.4459 0.23341C17.7651 -0.0926309 17.9671 -0.0679883 18.2787 0.25047C20.0878 2.09298 21.9102 3.92601 23.7495 5.74008C24.0762 6.06233 24.0837 6.25568 23.7646 6.57035Z" fill="#949494"/>
</svg>
