<svg width="19" height="22" viewBox="0 0 19 22" fill="none" xmlns="http://www.w3.org/2000/svg">
<g clip-path="url(#clip0_2316_3023)">
<path d="M18.9998 19.355C19.0015 19.1931 18.9535 19.0498 18.884 18.9104C18.7513 18.6441 18.5115 18.573 18.2393 18.6187C18.0035 18.6582 17.8385 18.7891 17.7776 19.0385C17.6624 19.5107 17.7342 19.9869 17.7325 20.4603C17.7313 20.7046 17.6757 20.7644 17.4203 20.7638C12.6244 20.7554 7.82847 20.752 3.03314 20.7644C2.43423 20.7661 1.95349 20.5816 1.59727 20.1297C1.25727 19.698 1.1478 19.2027 1.33952 18.6751C1.63781 17.8542 2.30159 17.5473 3.13335 17.5462C8.16094 17.5394 13.1879 17.5377 18.2155 17.5496C18.7942 17.5512 18.9981 17.2122 18.9981 16.7676C18.9969 11.4567 18.9992 6.14587 18.9946 0.834455C18.994 0.229629 18.7976 0.0016903 18.1524 0.0016903C13.1538 0.0022545 8.15572 0.00338291 3.1571 -2.31084e-06C2.55413 -0.000566515 1.98013 0.0959123 1.45594 0.397761C0.566844 0.90893 0.0316494 1.67343 0.0189067 2.67207C-0.015267 5.43497 0.00732239 8.19901 0.00732239 10.9625C0.00732239 13.7355 0.0079016 16.5086 0.00616396 19.2817C0.00616396 19.654 0.0965215 20.0146 0.25986 20.3379C0.812432 21.433 1.74786 21.9904 2.99028 21.9938C8.03641 22.0051 13.0831 21.9977 18.1298 21.9994C18.7988 22 18.9853 21.7687 18.9952 21.1593C19.005 20.5579 18.9934 19.9565 18.9998 19.355ZM3.88343 2.30816C4.26745 2.33354 4.46438 2.53891 4.46438 2.99592C4.46554 4.80814 4.46496 6.62093 4.46496 8.43315V8.68648C4.46496 10.5743 4.46496 12.4621 4.46554 14.3494C4.46554 14.5965 4.42326 14.8357 4.20837 14.9892C3.77917 15.2944 3.37025 14.9587 3.30769 14.4966C3.30306 14.4594 3.30711 14.4216 3.30711 14.3838C3.30711 10.5895 3.30943 6.79583 3.30422 3.00213C3.30364 2.58518 3.58224 2.28841 3.88343 2.30816Z" fill="#949494"/>
<path d="M18.9998 19.355C19.0015 19.1931 18.9535 19.0498 18.884 18.9104C18.7513 18.6441 18.5115 18.573 18.2393 18.6187C18.0035 18.6582 17.8385 18.7891 17.7776 19.0385C17.6624 19.5107 17.7342 19.9869 17.7325 20.4603C17.7313 20.7046 17.6757 20.7644 17.4203 20.7638C12.6244 20.7554 7.82847 20.752 3.03314 20.7644C2.43423 20.7661 1.95349 20.5816 1.59727 20.1297C1.25727 19.698 1.1478 19.2027 1.33952 18.6751C1.63781 17.8542 2.30159 17.5473 3.13335 17.5462C8.16094 17.5394 13.1879 17.5377 18.2155 17.5496C18.7942 17.5512 18.9981 17.2122 18.9981 16.7676C18.9969 11.4567 18.9992 6.14587 18.9946 0.834455C18.994 0.229629 18.7976 0.0016903 18.1524 0.0016903C13.1538 0.0022545 8.15572 0.00338291 3.1571 -2.31084e-06C2.55413 -0.000566515 1.98013 0.0959123 1.45594 0.397761C0.566844 0.90893 0.0316494 1.67343 0.0189067 2.67207C-0.015267 5.43497 0.00732239 8.19901 0.00732239 10.9625C0.00732239 13.7355 0.0079016 16.5086 0.00616396 19.2817C0.00616396 19.654 0.0965215 20.0146 0.25986 20.3379C0.812432 21.433 1.74786 21.9904 2.99028 21.9938C8.03641 22.0051 13.0831 21.9977 18.1298 21.9994C18.7988 22 18.9853 21.7687 18.9952 21.1593C19.005 20.5579 18.9934 19.9565 18.9998 19.355ZM3.88343 2.30816C4.26745 2.33354 4.46438 2.53891 4.46438 2.99592C4.46554 4.80814 4.46496 6.62093 4.46496 8.43315V8.68648C4.46496 10.5743 4.46496 12.4621 4.46554 14.3494C4.46554 14.5965 4.42326 14.8357 4.20837 14.9892C3.77917 15.2944 3.37025 14.9587 3.30769 14.4966C3.30306 14.4594 3.30711 14.4216 3.30711 14.3838C3.30711 10.5895 3.30943 6.79583 3.30422 3.00213C3.30364 2.58518 3.58224 2.28841 3.88343 2.30816Z" fill="#949494"/>
</g>
<defs>
<clipPath id="clip0_2316_3023">
<rect width="19" height="22" fill="white"/>
</clipPath>
</defs>
</svg>
