<svg width="21" height="16" viewBox="0 0 21 16" fill="none" xmlns="http://www.w3.org/2000/svg">
<path d="M8.80119 5.3627L6.84721 6.42103C6.69544 6.49936 6.56985 6.62347 6.49085 6.77365L5.96932 7.71433L5.4213 8.70728C5.33559 8.86409 5.21655 8.9751 5.07802 9.05343C4.80736 9.20361 4.46409 9.20361 4.18689 9.05343C4.05491 8.97495 3.93602 8.86394 3.85032 8.70728L2.78077 6.7738C2.76098 6.73464 2.73464 6.70196 2.70815 6.66927C2.68182 6.63011 2.65533 6.59757 2.6223 6.57136C2.56293 6.50599 2.49686 6.46035 2.42425 6.42118L0.470265 5.36286C-0.156755 5.02319 -0.156755 4.14141 0.470265 3.80837L2.42425 2.75004C2.49686 2.71088 2.56293 2.65861 2.6223 2.59324C2.65533 2.56718 2.68182 2.53449 2.70815 2.5018C2.73464 2.46912 2.76098 2.43643 2.78077 2.39727L3.85032 0.463788C4.01533 0.15033 4.32557 0 4.63581 0C4.94604 0 5.24974 0.150176 5.4213 0.463788L6.33222 2.11634L6.49069 2.39727C6.56985 2.54097 6.69528 2.66509 6.84705 2.74989L8.80103 3.80821C9.42167 4.14125 9.42167 5.02304 8.80119 5.3627Z" fill="#F3F3F3"/>
<path d="M17.3715 12.4214L15.8763 13.2401C15.7602 13.3007 15.6641 13.3967 15.6036 13.5129L15.2045 14.2406L14.7852 15.0088C14.7196 15.1301 14.6285 15.2159 14.5225 15.2765C14.3154 15.3927 14.0527 15.3927 13.8406 15.2765C13.7396 15.2158 13.6486 15.1299 13.583 15.0088L12.7646 13.513C12.7495 13.4827 12.7293 13.4574 12.709 13.4321C12.6889 13.4018 12.6686 13.3767 12.6433 13.3564C12.5979 13.3058 12.5474 13.2705 12.4918 13.2402L10.9966 12.4215C10.5168 12.1587 10.5168 11.4766 10.9966 11.2189L12.4918 10.4002C12.5474 10.3699 12.5979 10.3295 12.6433 10.2789C12.6686 10.2587 12.6889 10.2335 12.709 10.2082C12.7293 10.1829 12.7495 10.1576 12.7646 10.1273L13.583 8.63155C13.7093 8.38905 13.9467 8.27276 14.1841 8.27276C14.4215 8.27276 14.6539 8.38894 14.7852 8.63155L15.4822 9.90997L15.6035 10.1273C15.6641 10.2385 15.7601 10.3345 15.8762 10.4001L17.3714 11.2188C17.8463 11.4765 17.8463 12.1586 17.3715 12.4214Z" fill="#F3F3F3"/>
<path d="M19.8532 8.67487L18.8563 9.22069C18.7789 9.26108 18.7149 9.32509 18.6746 9.40255L18.4085 9.88769L18.1289 10.3998C18.0852 10.4807 18.0245 10.5379 17.9538 10.5783C17.8157 10.6558 17.6406 10.6558 17.4992 10.5783C17.4319 10.5378 17.3712 10.4806 17.3275 10.3998L16.7819 9.40262C16.7718 9.38243 16.7583 9.36557 16.7448 9.34871C16.7314 9.32851 16.7179 9.31173 16.701 9.29822C16.6707 9.2645 16.637 9.24096 16.6 9.22077L15.6032 8.67495C15.2833 8.49977 15.2833 8.045 15.6032 7.87324L16.6 7.32742C16.637 7.30723 16.6707 7.28027 16.701 7.24655C16.7179 7.23311 16.7314 7.21626 16.7448 7.1994C16.7583 7.18254 16.7718 7.16568 16.7819 7.14548L17.3275 6.14832C17.4117 5.98666 17.5699 5.90913 17.7282 5.90913C17.8865 5.90913 18.0414 5.98658 18.1289 6.14832L18.5936 7.0006L18.6745 7.14548C18.7149 7.2196 18.7788 7.28361 18.8563 7.32734L19.8531 7.87316C20.1697 8.04492 20.1697 8.49969 19.8532 8.67487Z" fill="#F3F3F3"/>
</svg>
