<svg width="29" height="22" viewBox="0 0 29 22" fill="none" xmlns="http://www.w3.org/2000/svg">
<path d="M11.8517 7.1146C11.9203 7.22533 11.9532 7.30996 11.8908 7.45454C11.3077 8.79948 10.9229 10.2333 10.6679 11.7997C9.79512 9.89546 8.7994 8.20141 7.40131 6.93264C7.21543 6.76409 7.02558 6.59976 6.76149 6.45941C7.18879 7.49262 7.62857 8.4412 8.08137 9.38061C8.7756 10.8194 9.5044 12.2292 10.295 13.5889C10.3596 13.7011 10.4304 13.8033 10.4185 13.9655C10.3114 15.4882 10.3154 17.0116 10.4168 18.6097C9.40069 17.4319 8.28992 16.5454 7.07658 15.8578C5.86211 15.1687 4.6108 14.6652 3.23482 14.7307C3.85707 15.2004 4.47252 15.6857 5.10385 16.1356C6.79493 17.3402 8.51038 18.487 10.325 19.3848C10.4406 19.4426 10.4808 19.5209 10.4933 19.6648C10.5302 20.0844 10.5727 20.504 10.622 20.9215C10.6356 21.0365 10.6106 21.0979 10.5273 21.1374C9.1281 21.7975 7.71187 22.3025 6.20044 21.789C5.01374 21.3856 4.17046 20.3975 3.44167 19.2261C2.60916 17.8861 1.9631 16.3959 1.23261 14.9741C0.851208 14.2328 0.452239 13.5071 0 12.7863C0.602986 12.4866 1.20994 12.2616 1.82256 12.0634C2.91179 11.7108 4.01518 11.4689 5.14635 11.4851C5.24779 11.4865 5.3243 11.5035 5.28973 11.306C5.04661 9.93284 5.03301 8.53218 4.98824 7.13717C4.94517 5.78729 4.91456 4.43813 4.75191 3.09953C4.74341 3.03112 4.74511 2.9613 4.74058 2.8541C5.42291 2.96977 6.07746 3.15948 6.72635 3.37811C8.18281 3.86827 9.5656 4.55731 10.7614 5.73722C11.1694 6.14063 11.5327 6.60046 11.8517 7.1146Z" fill="#949494"/>
<path d="M25.5398 0.137424C23.579 0.331371 21.6516 0.737603 19.7933 1.56276C15.2477 3.58052 12.7337 7.60405 12.1801 13.548C11.9545 15.9678 12.0718 18.3777 12.3353 20.7826C12.3563 20.9737 12.426 20.9998 12.553 21.0168C13.0964 21.0901 13.6382 21.1903 14.1828 21.2523C16.0315 21.4625 17.8761 21.4907 19.7044 21.0055C21.8052 20.4476 23.5484 19.1908 24.7838 16.9523C25.72 15.2562 26.2516 13.3463 26.6755 11.3822C27.4876 7.61675 27.9223 3.73356 28.9996 0.00765534C27.8192 -0.0191447 26.6789 0.0245817 25.5398 0.137424ZM13.7368 19.4751C14.6963 14.4437 20.2388 7.00528 24.6155 5.42267C21.2651 10.5168 17.8506 15.4141 13.7368 19.4751Z" fill="#949494"/>
<path d="M25.5398 0.137424C23.579 0.331371 21.6516 0.737603 19.7933 1.56276C15.2477 3.58052 12.7337 7.60405 12.1801 13.548C11.9545 15.9678 12.0718 18.3777 12.3353 20.7826C12.3563 20.9737 12.426 20.9998 12.553 21.0168C13.0964 21.0901 13.6382 21.1903 14.1828 21.2523C16.0315 21.4625 17.8761 21.4907 19.7044 21.0055C21.8052 20.4476 23.5484 19.1908 24.7838 16.9523C25.72 15.2562 26.2516 13.3463 26.6755 11.3822C27.4876 7.61675 27.9223 3.73356 28.9996 0.00765534C27.8192 -0.0191447 26.6789 0.0245817 25.5398 0.137424ZM13.7368 19.4751C14.6963 14.4437 20.2388 7.00528 24.6155 5.42267C21.2651 10.5168 17.8506 15.4141 13.7368 19.4751Z" fill="#949494"/>
<path d="M11.8908 7.45454C11.3077 8.79948 10.9229 10.2333 10.6679 11.7997C9.79512 9.89546 8.7994 8.20141 7.40131 6.93264C7.21543 6.76409 7.02558 6.59976 6.76149 6.45941C7.18879 7.49262 7.62857 8.4412 8.08137 9.38061C8.7756 10.8194 9.5044 12.2292 10.295 13.5889C10.3596 13.7011 10.4304 13.8033 10.4185 13.9655C10.3114 15.4882 10.3154 17.0116 10.4168 18.6097C9.40069 17.4319 8.28992 16.5454 7.07658 15.8578C5.86211 15.1687 4.6108 14.6652 3.23482 14.7307C3.85707 15.2004 4.47252 15.6857 5.10385 16.1356C6.79493 17.3402 8.51038 18.487 10.325 19.3848C10.4406 19.4426 10.4808 19.5209 10.4933 19.6648C10.5302 20.0844 10.5727 20.504 10.622 20.9215C10.6356 21.0365 10.6106 21.0979 10.5273 21.1374C9.1281 21.7975 7.71187 22.3025 6.20044 21.789C5.01374 21.3856 4.17046 20.3975 3.44167 19.2261C2.60916 17.8861 1.9631 16.3959 1.23261 14.9741C0.851208 14.2328 0.452239 13.5071 0 12.7863C0.602986 12.4866 1.20994 12.2616 1.82256 12.0634C2.91179 11.7108 4.01518 11.4689 5.14635 11.4851C5.24779 11.4865 5.3243 11.5035 5.28973 11.306C5.04661 9.93284 5.03301 8.53218 4.98824 7.13717C4.94517 5.78729 4.91456 4.43813 4.75191 3.09953C4.74341 3.03112 4.74511 2.9613 4.74058 2.8541C5.42291 2.96977 6.07746 3.15948 6.72635 3.37811C8.18281 3.86827 9.5656 4.55731 10.7614 5.73722C11.1694 6.14063 11.5327 6.60046 11.8517 7.1146C11.9203 7.22533 11.9532 7.30996 11.8908 7.45454Z" fill="#949494"/>
</svg>
