<svg width="28" height="25" viewBox="0 0 28 25" fill="none" xmlns="http://www.w3.org/2000/svg">
<path d="M26.5148 7.98569V14.3748M16.5696 1.59661C15.6843 1.17639 14.7166 0.958374 13.7366 0.958374C12.7567 0.958374 11.789 1.17639 10.9037 1.59661L2.35387 5.60512C0.493371 6.47659 0.493371 9.49479 2.35387 10.3663L10.9025 14.3748C11.7879 14.7952 12.7558 15.0133 13.736 15.0133C14.7162 15.0133 15.6841 14.7952 16.5696 14.3748L25.1194 10.3663C26.9799 9.49479 26.9799 6.47659 25.1194 5.60512L16.5696 1.59661Z" stroke="#CFCFCF" stroke-width="1.91672" stroke-linecap="round" stroke-linejoin="round"/>
<path d="M4.79102 11.8192V18.368C4.79102 22.0967 10.7891 23.9585 13.7357 23.9585C16.6824 23.9585 22.6804 22.0967 22.6804 18.368V11.8192" stroke="#CFCFCF" stroke-width="1.91672" stroke-linecap="round" stroke-linejoin="round"/>
</svg>
