<svg width="22" height="25" viewBox="0 0 22 25" fill="none" xmlns="http://www.w3.org/2000/svg">
<path d="M19.5556 22H2.44444V8.55556H19.5556M15.8889 0V2.44444H6.11111V0H3.66667V2.44444H2.44444C1.08778 2.44444 0 3.53222 0 4.88889V22C0 22.6483 0.257539 23.2701 0.715961 23.7285C1.17438 24.1869 1.79614 24.4444 2.44444 24.4444H19.5556C20.2039 24.4444 20.8256 24.1869 21.284 23.7285C21.7425 23.2701 22 22.6483 22 22V4.88889C22 4.24058 21.7425 3.61883 21.284 3.16041C20.8256 2.70198 20.2039 2.44444 19.5556 2.44444H18.3333V0M17.1111 13.4444H11V19.5556H17.1111V13.4444Z" fill="#CFCFCF"/>
</svg>
