<svg width="49" height="49" viewBox="0 0 49 49" fill="none" xmlns="http://www.w3.org/2000/svg">
<g filter="url(#filter0_d_1837_1586)">
<path d="M44.2499 28.1931L34.9719 33.2716C34.2512 33.6475 33.6549 34.2431 33.2798 34.9637L30.8034 39.4777L28.2013 44.2425C27.7943 44.9949 27.2291 45.5277 26.5713 45.9035C25.2861 46.6242 23.6562 46.6242 22.34 45.9035C21.7133 45.5269 21.1488 44.9942 20.7418 44.2425L15.6633 34.9644C15.5693 34.7765 15.4443 34.6197 15.3185 34.4628C15.1935 34.2749 15.0677 34.1188 14.9109 33.993C14.629 33.6793 14.3153 33.4603 13.9705 33.2723L4.69242 28.1938C1.71516 26.5639 1.71516 22.3325 4.69242 20.7344L13.9705 15.6559C14.3153 15.468 14.629 15.2171 14.9109 14.9034C15.0677 14.7784 15.1935 14.6215 15.3185 14.4647C15.4443 14.3078 15.5693 14.151 15.6633 13.963L20.7418 4.68499C21.5254 3.18082 22.9984 2.45944 24.4715 2.45944C25.9446 2.45944 27.3867 3.18008 28.2013 4.68499L32.5266 12.615L33.279 13.963C33.6549 14.6526 34.2505 15.2482 34.9711 15.6551L44.2492 20.7337C47.1961 22.3318 47.1961 26.5631 44.2499 28.1931Z" fill="url(#paint0_linear_1837_1586)"/>
</g>
<defs>
<filter id="filter0_d_1837_1586" x="2.6226e-05" y="-4.29153e-06" width="48.9189" height="48.9035" filterUnits="userSpaceOnUse" color-interpolation-filters="sRGB">
<feFlood flood-opacity="0" result="BackgroundImageFix"/>
<feColorMatrix in="SourceAlpha" type="matrix" values="0 0 0 0 0 0 0 0 0 0 0 0 0 0 0 0 0 0 127 0" result="hardAlpha"/>
<feOffset/>
<feGaussianBlur stdDeviation="1.22972"/>
<feComposite in2="hardAlpha" operator="out"/>
<feColorMatrix type="matrix" values="0 0 0 0 1 0 0 0 0 1 0 0 0 0 1 0 0 0 0.5 0"/>
<feBlend mode="normal" in2="BackgroundImageFix" result="effect1_dropShadow_1837_1586"/>
<feBlend mode="normal" in="SourceGraphic" in2="effect1_dropShadow_1837_1586" result="shape"/>
</filter>
<linearGradient id="paint0_linear_1837_1586" x1="46.4595" y1="24.4517" x2="2.45947" y2="24.4517" gradientUnits="userSpaceOnUse">
<stop stop-color="#CFAEFF"/>
<stop offset="0.504742" stop-color="#4EB2FF"/>
<stop offset="1" stop-color="#31E8B0"/>
</linearGradient>
</defs>
</svg>
