<svg width="29" height="29" viewBox="0 0 29 29" fill="none" xmlns="http://www.w3.org/2000/svg">
<path d="M14.5002 20.5416C13.8592 20.5416 13.2445 20.287 12.7913 19.8338C12.3381 19.3806 12.0835 18.7659 12.0835 18.125C12.0835 16.7837 13.1589 15.7083 14.5002 15.7083C15.1411 15.7083 15.7558 15.9629 16.209 16.4161C16.6622 16.8694 16.9168 17.484 16.9168 18.125C16.9168 18.7659 16.6622 19.3806 16.209 19.8338C15.7558 20.287 15.1411 20.5416 14.5002 20.5416ZM21.7502 24.1666V12.0833H7.25016V24.1666H21.7502ZM21.7502 9.66665C22.3911 9.66665 23.0058 9.92126 23.459 10.3745C23.9122 10.8277 24.1668 11.4424 24.1668 12.0833V24.1666C24.1668 24.8076 23.9122 25.4223 23.459 25.8755C23.0058 26.3287 22.3911 26.5833 21.7502 26.5833H7.25016C6.60922 26.5833 5.99453 26.3287 5.54132 25.8755C5.08811 25.4223 4.8335 24.8076 4.8335 24.1666V12.0833C4.8335 10.7421 5.90891 9.66665 7.25016 9.66665H8.4585V7.24998C8.4585 5.64763 9.09503 4.11091 10.2281 2.97788C11.3611 1.84484 12.8978 1.20831 14.5002 1.20831C15.2936 1.20831 16.0792 1.36459 16.8122 1.66821C17.5452 1.97183 18.2112 2.41686 18.7723 2.97788C19.3333 3.5389 19.7783 4.20493 20.0819 4.93793C20.3856 5.67094 20.5418 6.45658 20.5418 7.24998V9.66665H21.7502ZM14.5002 3.62498C13.5388 3.62498 12.6167 4.0069 11.9369 4.68672C11.2571 5.36654 10.8752 6.28857 10.8752 7.24998V9.66665H18.1252V7.24998C18.1252 6.28857 17.7432 5.36654 17.0634 4.68672C16.3836 4.0069 15.4616 3.62498 14.5002 3.62498Z" fill="#CFCFCF"/>
</svg>
