<svg width="30" height="30" viewBox="0 0 30 30" fill="none" xmlns="http://www.w3.org/2000/svg">
<path d="M26.1076 3.90009C25.6633 3.45569 25.1357 3.10317 24.5552 2.86265C23.9746 2.62214 23.3523 2.49835 22.7239 2.49835C22.0954 2.49835 21.4731 2.62214 20.8926 2.86265C20.312 3.10317 19.7844 3.45569 19.3401 3.90009L17.9651 5.27759C17.8963 5.33248 17.8334 5.39449 17.7776 5.46259L4.12761 19.1151C3.95308 19.2892 3.83392 19.511 3.78511 19.7526L2.52511 26.0026C2.484 26.2046 2.49349 26.4136 2.55272 26.6111C2.61196 26.8085 2.7191 26.9882 2.86462 27.1342C3.01013 27.2802 3.18949 27.388 3.38674 27.4479C3.58398 27.5078 3.79297 27.518 3.99511 27.4776L10.2551 26.2276C10.4967 26.1788 10.7185 26.0596 10.8926 25.8851L26.1076 10.6701C26.552 10.2258 26.9045 9.69823 27.145 9.11764C27.3856 8.53705 27.5093 7.91477 27.5093 7.28634C27.5093 6.65791 27.3856 6.03563 27.145 5.45504C26.9045 4.87445 26.552 4.34693 26.1076 3.90259M18.7551 8.02509L21.9876 11.2576L9.39261 23.8501L5.34761 24.6601L6.16011 20.6201L18.7551 8.02509ZM23.7551 9.49009L20.5226 6.25509L21.1076 5.67009C21.3188 5.45369 21.5708 5.28135 21.849 5.16305C22.1273 5.04475 22.4262 4.98286 22.7286 4.98095C23.0309 4.97903 23.3307 5.03715 23.6104 5.15191C23.8901 5.26668 24.1443 5.43582 24.3581 5.64954C24.572 5.86325 24.7414 6.11729 24.8563 6.39692C24.9713 6.67656 25.0297 6.97623 25.028 7.27858C25.0263 7.58093 24.9647 7.87994 24.8466 8.15828C24.7285 8.43662 24.5563 8.68876 24.3401 8.90009L23.7551 9.49009Z" fill="#565656"/>
</svg>
