<svg width="25" height="23" viewBox="0 0 25 23" fill="none" xmlns="http://www.w3.org/2000/svg">
<path d="M2.42105 23C1.75526 23 1.18551 22.7631 0.711789 22.2894C0.23807 21.8157 0.000807017 21.2455 0 20.5789V7.26316C0 6.59737 0.237263 6.02761 0.711789 5.55389C1.18632 5.08017 1.75607 4.84291 2.42105 4.8421H7.26316V2.42105C7.26316 1.75526 7.50042 1.18551 7.97495 0.711789C8.44947 0.23807 9.01923 0.000807017 9.68421 0H14.5263C15.1921 0 15.7623 0.237263 16.2368 0.711789C16.7113 1.18632 16.9482 1.75607 16.9474 2.42105V4.8421H21.7895C22.4553 4.8421 23.0254 5.07937 23.4999 5.55389C23.9745 6.02842 24.2113 6.59818 24.2105 7.26316V20.5789C24.2105 21.2447 23.9737 21.8149 23.4999 22.2894C23.0262 22.7639 22.4561 23.0008 21.7895 23H2.42105ZM2.42105 20.5789H21.7895V7.26316H2.42105V20.5789ZM9.68421 4.8421H14.5263V2.42105H9.68421V4.8421Z" fill="#CFCFCF"/>
</svg>
