<svg width="26" height="26" viewBox="0 0 26 26" fill="none" xmlns="http://www.w3.org/2000/svg">
<path d="M14.7832 13.6085C15.8453 12.7728 16.6205 11.627 17.001 10.3302C17.3816 9.0335 17.3484 7.65041 16.9063 6.37338C16.4642 5.09635 15.635 3.98888 14.5341 3.20505C13.4332 2.42122 12.1154 2 10.764 2C9.41263 2 8.09482 2.42122 6.99396 3.20505C5.89309 3.98888 5.06391 5.09635 4.62177 6.37338C4.17962 7.65041 4.14651 9.0335 4.52703 10.3302C4.90755 11.627 5.68278 12.7728 6.74487 13.6085C4.92495 14.3376 3.33701 15.5469 2.15033 17.1075C0.963657 18.6681 0.222728 20.5215 0.00653449 22.4701C-0.0091147 22.6124 0.00341074 22.7563 0.0433954 22.8938C0.08338 23.0312 0.150041 23.1594 0.239572 23.2711C0.420388 23.4966 0.683383 23.641 0.970701 23.6726C1.25802 23.7042 1.54612 23.6204 1.77164 23.4396C1.99715 23.2588 2.1416 22.9958 2.1732 22.7085C2.41108 20.5907 3.42086 18.6349 5.00961 17.2146C6.59835 15.7944 8.65468 15.0092 10.7857 15.0092C12.9167 15.0092 14.9731 15.7944 16.5618 17.2146C18.1505 18.6349 19.1603 20.5907 19.3982 22.7085C19.4277 22.9746 19.5547 23.2205 19.7547 23.3986C19.9548 23.5766 20.2137 23.6742 20.4815 23.6726H20.6007C20.8847 23.6399 21.1442 23.4964 21.3228 23.2731C21.5014 23.0499 21.5845 22.7652 21.554 22.481C21.3368 20.5268 20.5919 18.6687 19.3991 17.1057C18.2063 15.5427 16.6107 14.3337 14.7832 13.6085ZM10.764 12.8393C9.90698 12.8393 9.06918 12.5851 8.35656 12.109C7.64395 11.6328 7.08854 10.9561 6.76056 10.1642C6.43258 9.37244 6.34676 8.50115 6.51396 7.66056C6.68117 6.81998 7.09388 6.04785 7.69991 5.44182C8.30593 4.8358 9.07806 4.42309 9.91864 4.25588C10.7592 4.08868 11.6305 4.1745 12.4223 4.50248C13.2141 4.83046 13.8909 5.38587 14.3671 6.09848C14.8432 6.8111 15.0974 7.6489 15.0974 8.50595C15.0974 9.65523 14.6408 10.7574 13.8282 11.5701C13.0155 12.3827 11.9133 12.8393 10.764 12.8393Z" fill="#CFCFCF"/>
</svg>
